<?xml version="1.0" standalone="no"?>
<!DOCTYPE svg PUBLIC "-//W3C//DTD SVG 20010904//EN"
 "http://www.w3.org/TR/2001/REC-SVG-20010904/DTD/svg10.dtd">
<svg version="1.0" xmlns="http://www.w3.org/2000/svg"
 width="1280.000000pt" height="640.000000pt" viewBox="0 0 1280.000000 640.000000"
 preserveAspectRatio="xMidYMid meet">
<metadata>
Created by potrace 1.15, written by Peter Selinger 2001-2017
</metadata>
<g transform="translate(0.000000,640.000000) scale(0.100000,-0.100000)"
fill="#000000" stroke="none">
<path d="M7417 6009 c-114 -27 -245 -127 -266 -204 -15 -54 -14 -94 4 -195 8
-47 15 -99 15 -116 0 -20 9 -39 25 -54 40 -37 105 -144 105 -172 0 -22 -10
-30 -72 -58 -40 -17 -80 -38 -88 -45 -8 -7 -33 -18 -55 -24 -24 -6 -55 -26
-75 -46 -19 -20 -52 -46 -73 -58 -37 -21 -99 -101 -112 -144 l-6 -23 -37 24
c-20 13 -75 40 -122 60 -47 21 -87 40 -89 42 -3 2 14 22 37 45 47 45 82 106
82 143 0 14 10 44 21 66 28 54 37 129 17 144 -11 8 -16 37 -20 101 -7 129 -50
202 -140 239 -114 48 -299 -19 -355 -127 -23 -46 -53 -210 -53 -294 0 -85 -20
-173 -57 -251 -27 -58 -55 -77 -175 -118 l-66 -22 -41 30 c-45 33 -214 93
-363 129 l-98 23 -6 35 c-3 20 -8 43 -10 52 -3 12 4 18 25 22 17 4 35 16 41
27 17 31 24 118 12 133 -7 8 -8 26 -2 52 12 54 13 126 3 204 l-9 64 -90 84
c-97 90 -120 102 -169 84 -17 -6 -49 -11 -71 -11 -35 0 -61 -10 -203 -79 -29
-14 -38 -27 -63 -95 -51 -141 -54 -161 -28 -212 19 -39 20 -49 10 -75 -11 -25
-10 -32 5 -49 14 -15 16 -29 10 -68 -6 -47 -5 -50 19 -56 14 -3 37 -22 52 -41
21 -27 34 -35 59 -35 31 0 32 -1 38 -52 5 -36 3 -57 -6 -65 -6 -6 -67 -39
-134 -72 -103 -51 -134 -72 -197 -134 l-75 -73 -30 42 c-60 86 -174 148 -359
195 -117 30 -145 44 -197 98 -25 27 -30 42 -36 107 -7 67 -5 81 17 130 28 63
29 95 9 183 -32 133 -124 261 -217 301 -118 51 -264 -7 -333 -132 -27 -48 -30
-61 -29 -143 2 -105 34 -257 70 -332 18 -38 36 -58 70 -78 49 -29 62 -51 66
-116 2 -38 -2 -46 -36 -75 -20 -18 -63 -42 -94 -55 -72 -28 -102 -49 -179
-122 -57 -55 -65 -59 -112 -60 -40 -2 -54 3 -76 23 -18 17 -24 31 -20 45 3 11
10 51 15 89 6 37 19 83 30 101 14 23 23 63 30 132 5 55 12 107 16 116 4 12 -3
22 -25 34 -33 19 -33 22 -10 80 12 30 11 34 -10 57 -13 13 -36 30 -52 36 -23
10 -27 16 -23 39 7 33 -8 46 -60 54 -22 4 -57 20 -79 38 -35 28 -44 31 -83 25
-61 -8 -87 -24 -171 -103 l-73 -69 0 -128 c0 -117 3 -136 31 -220 17 -50 46
-145 65 -211 33 -118 34 -120 15 -136 -11 -9 -46 -21 -78 -28 -104 -20 -134
-32 -174 -68 -69 -62 -164 -245 -178 -343 l-6 -45 -32 56 c-31 55 -34 57 -112
84 l-80 28 15 28 c18 36 18 80 -1 126 -19 45 -15 50 15 18 13 -14 32 -25 42
-25 27 0 22 13 -13 33 -18 10 -29 20 -26 23 7 8 79 -13 102 -30 17 -12 18 -16
5 -32 -13 -15 -13 -17 0 -12 18 6 24 31 16 63 -4 15 -18 28 -41 36 -19 7 -35
17 -35 22 0 5 8 6 18 1 9 -4 43 -8 74 -8 66 -1 71 7 33 52 -20 24 -22 31 -11
43 40 42 20 84 -45 94 -29 5 -31 4 -11 -5 19 -8 21 -13 12 -30 -27 -50 -90 -2
-115 89 -35 126 -68 195 -116 243 -86 86 -216 99 -314 30 -67 -47 -76 -73
-100 -287 -21 -190 -22 -192 -64 -269 -39 -71 -50 -123 -26 -120 5 1 17 14 25
30 10 17 29 31 50 37 38 10 50 -1 50 -44 0 -32 -17 -44 -127 -88 -115 -46
-171 -107 -236 -257 -27 -60 -51 -114 -53 -121 -4 -7 8 -14 29 -18 33 -6 35
-9 40 -56 7 -56 -8 -316 -23 -399 -24 -135 -40 -420 -40 -727 l0 -322 34 -33
c19 -18 61 -49 95 -68 36 -20 61 -42 61 -52 0 -9 13 -21 29 -26 l29 -10 8
-119 c5 -65 9 -181 9 -258 0 -147 -7 -177 -56 -230 -10 -11 -31 -44 -47 -73
l-29 -53 -12 99 c-20 167 -55 318 -131 560 l-72 232 23 132 c29 168 31 336 5
425 -18 60 -18 62 3 124 26 75 41 227 32 324 -11 112 -42 148 -183 216 -75 35
-106 73 -115 138 -4 32 1 50 36 108 39 65 41 73 41 149 0 131 -29 193 -111
234 -55 28 -151 27 -209 -2 -42 -22 -46 -28 -69 -98 -18 -56 -25 -106 -29
-198 l-4 -122 -57 -16 c-43 -13 -66 -27 -101 -64 -101 -106 -127 -173 -85
-220 18 -20 18 -23 0 -113 -23 -115 -33 -434 -16 -505 7 -26 28 -82 48 -125
l37 -79 -23 -121 c-33 -178 -65 -380 -101 -651 -18 -132 -56 -358 -84 -502
l-53 -263 89 -21 c48 -12 88 -23 88 -24 0 0 -11 -31 -23 -68 -16 -45 -34 -75
-56 -94 -41 -34 -84 -120 -132 -264 -42 -124 -46 -151 -25 -169 18 -15 40 -6
99 41 47 37 115 123 222 283 29 44 84 115 121 159 l68 78 105 -6 c156 -11 148
-7 156 -82 8 -71 1 -153 -20 -229 -8 -27 -20 -75 -28 -105 -8 -30 -31 -111
-51 -180 -30 -102 -35 -129 -26 -149 10 -22 15 -23 61 -18 102 12 161 71 175
174 5 39 12 56 30 68 24 16 32 49 14 60 -5 3 -10 19 -10 35 0 53 49 314 76
401 l26 86 92 46 c134 67 123 69 131 -26 4 -45 13 -126 20 -180 10 -82 10
-114 -2 -190 -15 -97 -11 -267 8 -340 24 -92 240 -176 300 -116 24 24 23 29
-41 169 -97 212 -105 352 -33 565 22 66 60 181 83 255 23 74 68 189 100 255
33 69 60 140 64 167 5 40 58 178 68 178 7 0 -14 -191 -34 -309 -25 -145 -21
-259 13 -441 30 -162 35 -279 15 -363 -26 -109 -22 -178 14 -241 l30 -53 43 4
c36 4 48 1 74 -21 18 -15 41 -42 52 -60 26 -42 60 -57 146 -63 52 -4 75 -1 89
10 19 14 19 16 2 61 -13 33 -38 64 -91 112 -78 70 -113 125 -140 219 -22 73
-15 244 16 455 15 104 19 179 18 325 -2 193 10 314 35 363 7 15 39 110 70 212
32 102 64 190 72 196 7 6 14 19 14 30 0 14 3 15 12 6 31 -31 146 1 168 46 l13
27 8 -25 c4 -14 7 -42 8 -62 1 -20 8 -67 17 -105 17 -72 15 -205 -5 -294 -16
-70 -40 -300 -51 -490 -9 -149 -8 -196 6 -310 9 -74 17 -186 18 -249 1 -102
-2 -124 -26 -191 -40 -111 -45 -174 -16 -224 41 -69 129 -115 221 -115 38 0
49 5 67 27 28 35 23 83 -20 190 -41 103 -46 184 -25 423 9 107 23 274 30 370
9 123 22 214 44 307 43 183 50 243 58 511 3 128 9 234 12 236 3 2 31 -1 62 -7
l57 -10 -5 -261 c-5 -283 -9 -258 57 -441 29 -81 34 -109 45 -285 23 -337 27
-510 16 -600 -20 -160 -41 -201 -146 -273 -84 -56 -152 -125 -161 -161 -15
-59 70 -92 211 -83 87 5 158 30 221 79 52 39 204 236 204 263 0 16 -19 45 -49
79 -62 68 -71 99 -60 212 47 513 48 740 4 969 -23 122 -26 154 -20 250 12 194
20 206 29 42 6 -130 14 -174 61 -367 65 -264 75 -332 75 -499 0 -146 7 -161
75 -161 l39 0 -33 -34 c-36 -37 -35 -48 9 -71 21 -11 32 -27 40 -56 17 -61 52
-92 100 -87 36 3 39 1 44 -26 11 -56 6 -108 -14 -136 -11 -15 -27 -62 -37
-105 -11 -51 -30 -98 -55 -139 -60 -95 -71 -122 -65 -148 9 -33 66 -58 147
-65 110 -9 172 24 212 115 11 25 29 47 43 52 13 5 31 20 40 34 16 24 16 31 0
103 -10 43 -21 107 -26 143 -5 36 -15 88 -21 115 -19 85 -15 166 10 209 12 20
22 52 22 70 0 19 7 50 15 69 8 20 15 54 15 76 0 35 -4 42 -24 47 -14 3 -34 3
-45 -1 -17 -5 -20 0 -26 42 -3 26 -20 116 -37 198 -36 174 -41 288 -15 380 38
137 50 194 55 278 3 52 9 86 15 84 28 -9 221 -489 274 -680 48 -174 69 -229
150 -390 l54 -109 -26 -34 c-33 -43 -24 -61 48 -99 36 -19 57 -38 65 -57 11
-30 46 -48 92 -48 54 0 48 -65 -8 -94 -66 -34 -72 -48 -72 -154 l0 -98 -46
-44 c-25 -25 -52 -58 -60 -73 -14 -25 -14 -31 0 -52 25 -38 83 -48 230 -40
l129 6 50 42 c108 91 126 110 137 142 10 30 8 42 -18 102 -16 37 -44 112 -62
166 l-32 99 37 80 c34 71 37 86 32 137 -5 63 -36 143 -67 176 -11 12 -31 53
-44 91 -13 39 -42 104 -64 145 -48 88 -102 253 -102 310 0 22 9 99 20 171 24
151 19 229 -27 448 -34 162 -33 239 6 418 25 117 31 165 31 270 0 70 7 226 16
347 17 235 14 294 -15 353 -18 35 -35 143 -22 141 3 0 33 -41 65 -91 33 -49
90 -124 126 -167 l67 -77 -19 -38 c-16 -31 -23 -88 -40 -310 -25 -332 -20
-397 51 -681 96 -385 112 -478 117 -690 4 -164 2 -204 -16 -293 -24 -123 -26
-227 -5 -302 46 -167 67 -255 91 -387 22 -128 25 -162 19 -267 -9 -141 -16
-164 -79 -235 -62 -69 -60 -85 8 -105 30 -9 67 -16 84 -16 16 0 35 -7 42 -15
18 -22 32 -19 82 19 l45 35 11 128 c9 94 9 145 1 193 -21 122 -7 856 21 1164
11 114 11 199 1 460 -9 230 -10 329 -2 349 6 15 13 27 15 27 3 0 10 -26 16
-57 6 -32 24 -114 40 -183 55 -237 62 -320 65 -765 2 -356 0 -415 -13 -445
-12 -25 -16 -68 -17 -150 0 -63 -4 -171 -9 -240 -14 -200 19 -335 73 -302 11
6 28 12 36 12 21 0 71 54 97 105 19 36 20 50 14 155 -4 63 -11 144 -16 180
-18 122 -6 353 14 270 31 -130 46 -313 26 -325 -16 -10 -12 -100 6 -145 10
-25 28 -47 45 -56 32 -16 35 -28 14 -64 -39 -68 -8 -134 91 -189 30 -18 81
-56 113 -85 68 -62 144 -95 242 -103 85 -7 175 17 191 51 13 30 0 50 -62 98
-25 18 -46 44 -48 56 -3 17 -10 22 -32 22 -26 0 -128 67 -160 105 -27 33 5 28
83 -12 45 -24 100 -46 122 -49 22 -3 70 -14 106 -25 87 -25 161 -25 215 2 52
25 63 52 37 88 -29 38 -68 58 -210 106 -108 37 -132 49 -155 78 l-28 35 25 43
c14 24 25 58 25 74 0 36 -31 89 -61 105 -21 12 -21 17 -15 94 5 72 36 210 81
366 11 38 15 78 11 127 -4 61 -1 76 15 97 12 15 19 40 19 67 0 30 8 54 27 81
24 35 25 42 15 75 -9 30 -9 40 3 53 8 9 15 23 15 31 0 8 19 48 41 89 105 195
202 440 239 605 13 55 29 107 35 115 7 8 20 31 28 50 l15 35 -1 -75 c-1 -63 3
-85 27 -137 23 -50 33 -63 51 -63 31 0 75 37 91 77 27 62 31 33 12 -83 -10
-65 -16 -119 -14 -122 3 -2 51 -13 107 -23 56 -10 104 -20 105 -22 2 -1 11
-54 20 -117 12 -87 18 -231 24 -585 9 -542 5 -517 115 -830 63 -181 66 -193
62 -265 -4 -86 -24 -138 -92 -239 -42 -62 -45 -71 -35 -97 21 -55 37 -64 114
-64 40 0 96 6 126 14 54 15 55 14 79 -11 24 -25 26 -26 128 -20 113 7 169 25
181 57 10 28 -3 179 -24 263 -23 97 -15 153 50 319 73 193 124 363 142 478 10
68 14 190 14 426 l0 331 85 -33 c46 -19 98 -34 114 -34 28 0 30 -3 42 -57 10
-48 9 -81 -4 -191 -18 -139 -25 -162 -77 -227 -18 -22 -38 -51 -45 -65 -17
-33 -41 -225 -60 -484 -9 -115 -17 -212 -19 -215 -3 -3 -9 -60 -16 -126 -6
-66 -16 -124 -21 -130 -27 -27 14 -122 97 -229 49 -62 91 -86 151 -86 50 1
117 32 138 64 25 38 13 78 -52 176 -50 75 -57 92 -61 145 -2 34 -11 68 -19 77
-20 23 -18 34 79 393 63 236 92 324 134 415 29 63 69 168 89 233 19 65 41 124
48 132 8 7 21 73 31 154 9 78 22 155 28 172 9 28 14 30 52 27 l41 -3 1 -180
c0 -170 2 -187 34 -310 30 -119 32 -135 22 -195 -12 -75 2 -1042 17 -1154 10
-79 35 -112 95 -126 53 -12 134 11 163 45 39 45 23 142 -44 265 -62 114 -59
157 34 590 60 278 61 306 29 475 -8 44 -15 128 -16 186 0 93 2 108 20 124 14
13 20 31 20 60 0 24 9 62 20 86 22 50 25 90 8 107 -23 23 18 50 95 62 101 17
107 21 96 68 -5 22 -17 59 -27 83 -18 41 -18 46 -3 82 l16 38 23 -21 c26 -24
29 -68 8 -109 -15 -28 -15 -28 35 -51 36 -17 49 -29 49 -44 0 -12 7 -86 16
-166 9 -80 17 -250 19 -380 2 -197 6 -254 25 -352 22 -111 22 -129 14 -342
l-9 -225 -107 -208 c-90 -177 -148 -311 -148 -345 0 -20 42 -48 73 -48 46 0
129 26 159 50 33 26 59 81 63 134 3 45 48 158 71 177 9 8 17 4 30 -15 15 -24
15 -34 3 -107 -9 -55 -10 -86 -3 -97 18 -30 101 -64 167 -69 60 -5 63 -4 75
21 18 40 15 93 -13 202 -14 54 -25 122 -25 151 0 32 -7 64 -19 85 -10 18 -34
71 -52 117 l-32 83 12 105 c7 57 28 154 47 214 39 127 54 234 53 370 0 60 6
122 17 165 18 75 85 238 142 349 l37 70 3 -157 3 -157 26 -3 c25 -3 28 -8 45
-93 16 -77 18 -116 12 -270 -14 -365 -11 -406 56 -675 50 -202 60 -262 65
-395 7 -164 23 -228 65 -245 36 -15 88 -8 139 18 31 16 40 16 61 5 35 -18 121
-16 148 3 13 9 22 26 22 41 l0 26 21 -27 c11 -14 26 -26 32 -26 7 0 37 -12 67
-26 102 -47 133 -7 106 139 -19 98 -20 134 -5 139 6 2 13 33 16 68 3 43 11 69
22 78 9 7 16 27 17 45 3 97 74 323 168 535 26 57 56 143 66 190 11 48 29 123
40 167 11 44 33 152 50 240 17 88 34 163 39 168 22 22 39 -268 52 -913 10
-498 14 -561 31 -615 13 -41 17 -73 12 -102 -6 -41 -5 -42 31 -57 20 -9 54
-29 74 -45 61 -49 115 -58 207 -37 123 29 150 64 130 169 -6 33 -5 37 14 37
16 0 20 5 16 18 -3 9 -8 59 -12 109 -6 81 -10 96 -32 118 -13 14 -31 25 -38
25 -27 0 -25 17 31 255 10 43 15 99 13 146 -3 70 -1 77 25 108 15 18 27 45 27
59 0 15 11 107 25 204 23 170 40 234 69 268 7 8 16 44 19 80 3 36 15 96 27
134 30 95 39 74 56 -128 7 -89 19 -227 25 -307 7 -81 9 -172 6 -203 -5 -54 -4
-58 19 -66 13 -5 24 -11 25 -12 0 -2 4 -77 9 -168 4 -98 15 -191 25 -230 22
-84 16 -166 -19 -244 -14 -32 -26 -76 -26 -97 0 -21 -13 -79 -30 -129 -16 -50
-30 -100 -30 -111 0 -33 19 -59 43 -59 29 1 106 36 134 62 29 27 30 39 43 293
11 225 56 540 79 554 9 6 12 31 10 82 -2 68 -1 74 18 77 19 3 20 13 28 280 14
428 12 506 -14 577 -24 69 -28 167 -6 205 22 38 18 63 -15 105 -35 44 -40 89
-10 105 11 6 20 21 20 33 0 13 14 36 31 53 89 83 283 301 309 347 37 64 37 89
4 173 -32 78 -51 92 -121 86 -50 -4 -65 -13 -44 -26 5 -4 5 -18 -2 -36 -9 -25
-8 -37 10 -73 21 -43 21 -43 1 -67 -11 -14 -31 -46 -44 -71 -24 -48 -75 -99
-100 -99 -8 0 -14 1 -14 3 0 1 -9 56 -20 122 -25 149 -41 183 -100 214 -25 13
-62 34 -82 47 -34 22 -36 25 -26 52 9 23 8 36 -5 61 -16 32 -16 35 9 77 14 25
41 59 60 76 25 24 34 41 34 64 0 17 7 51 15 74 19 54 19 123 0 160 -17 33 -91
87 -138 101 -55 16 -116 -5 -182 -64 -54 -49 -57 -54 -46 -76 12 -22 12 -39
-5 -134 -4 -26 -2 -44 9 -61 19 -28 13 -89 -12 -123 -13 -18 -26 -22 -62 -23
-26 0 -64 -6 -86 -14 -41 -15 -57 -10 -163 43 -11 6 -15 31 -16 102 -7 287
-13 399 -24 439 -25 93 -72 139 -163 160 -37 8 -66 7 -135 -7 -151 -29 -173
-71 -198 -372 -13 -153 -20 -200 -33 -212 -14 -14 -120 -56 -158 -62 -7 -1
-34 29 -60 67 -26 38 -59 77 -73 88 -15 11 -69 27 -129 37 -88 16 -108 23
-131 47 -30 31 -48 74 -31 74 15 0 36 46 51 110 8 32 23 64 36 77 23 21 23 26
18 135 -3 62 -10 130 -15 150 -13 50 -50 92 -105 118 -60 30 -146 25 -227 -13
-50 -23 -61 -33 -78 -73 -12 -26 -23 -72 -26 -103 -5 -48 -2 -59 16 -75 15
-14 21 -31 21 -60 l0 -41 -31 65 c-40 85 -108 155 -173 176 -37 13 -68 15
-128 10 -80 -7 -116 2 -160 42 -21 18 -23 72 -7 136 8 34 18 46 44 59 40 19
66 76 37 83 -15 4 -17 16 -14 89 4 99 -13 167 -57 237 -38 60 -79 81 -156 81
-143 1 -275 -86 -275 -181 0 -16 -7 -46 -16 -67 -20 -49 -15 -78 16 -85 24 -6
25 -10 30 -90 5 -81 6 -85 33 -98 24 -12 27 -19 27 -61 0 -38 5 -52 25 -71 14
-13 30 -41 35 -61 9 -32 7 -46 -15 -96 -25 -55 -57 -92 -81 -93 -7 0 -17 21
-23 46 -34 135 -133 218 -239 200 l-34 -5 6 37 c4 20 7 87 7 147 2 121 -6 155
-83 355 -45 117 -59 137 -105 156 -44 19 -90 17 -164 -6 -120 -37 -158 -79
-303 -333 -69 -119 -98 -196 -111 -288 -4 -27 -9 -48 -12 -45 -3 3 -14 59 -24
124 -36 240 -106 347 -261 403 -45 17 -68 33 -101 72 -54 65 -108 89 -190 86
l-62 -2 0 85 c0 94 16 128 59 128 47 0 48 8 44 176 -3 155 -4 161 -36 229 -55
116 -109 156 -207 154 -22 -1 -57 -5 -78 -10z m-607 -1171 c0 -19 -18 -44 -25
-36 -4 3 0 15 7 27 15 24 18 26 18 9z m-1968 -566 c10 -64 20 -139 23 -167 l6
-50 -23 30 c-12 17 -39 48 -60 69 -42 43 -42 45 -28 78 5 13 19 56 30 96 12
41 24 71 28 67 4 -3 14 -59 24 -123z m3253 -10 l38 -94 -18 -131 c-9 -73 -20
-138 -24 -145 -4 -7 -13 83 -20 200 -7 117 -15 227 -18 243 -9 47 2 28 42 -73z
m-2299 -56 c-8 -130 -21 -213 -48 -304 -24 -84 -40 -103 -33 -40 3 24 14 122
25 218 20 180 34 245 52 234 7 -5 9 -42 4 -108z m-3488 -58 c13 -13 16 -108 5
-171 l-6 -38 -21 38 c-21 36 -21 38 -4 45 28 11 32 36 15 89 -15 49 -12 60 11
37z m7961 -64 c22 -66 28 -124 13 -124 -5 0 -19 37 -31 83 -12 45 -24 90 -27
99 -4 13 -1 16 9 12 8 -3 24 -34 36 -70z m-5885 9 c4 -16 11 -163 15 -328 7
-232 14 -326 30 -415 25 -140 28 -245 6 -254 -9 -3 -21 4 -30 17 -14 22 -20
99 -51 635 -7 125 4 385 16 377 4 -3 11 -17 14 -32z m-2099 -372 c-24 -132
-34 -144 -35 -41 0 69 4 93 22 128 31 57 34 33 13 -87z m7089 -125 l27 -128
-18 -75 c-9 -42 -23 -78 -31 -80 -20 -8 -22 0 -10 39 8 28 8 42 -3 64 -10 22
-13 67 -11 178 1 84 6 145 11 140 5 -5 21 -67 35 -138z m-1178 -29 l42 -26
-10 -53 c-35 -192 -108 -400 -129 -367 -5 8 -9 133 -9 278 l0 265 33 -35 c17
-20 51 -47 73 -62z m-6729 -202 c-6 -208 -14 -270 -46 -345 -19 -47 -33 -184
-31 -302 0 -38 -1 -68 -3 -68 -12 0 -47 74 -47 100 0 15 -5 30 -12 32 -17 6
-22 113 -9 199 9 62 100 547 118 629 5 24 6 24 20 -10 13 -29 14 -71 10 -235z
m9299 28 l-37 -108 3 96 c3 72 8 103 22 124 16 25 19 26 33 12 14 -14 12 -26
-21 -124z m-3790 -69 c8 -42 -11 -143 -30 -162 -11 -12 -14 -8 -20 22 -4 19
-4 59 0 88 11 90 38 117 50 52z m3791 -84 l30 -11 6 -112 c7 -128 -1 -239 -16
-234 -20 6 -67 105 -86 178 -18 73 -18 74 2 131 12 32 24 58 28 58 3 0 20 -5
36 -10z m916 -190 c7 -87 -6 -96 -19 -13 -5 35 3 111 11 101 1 -2 5 -41 8 -88z
m-4843 -177 c-12 -28 -50 -31 -50 -5 0 10 8 41 17 68 l17 49 13 -45 c10 -32
11 -52 3 -67z m4078 -376 c-4 -99 -16 -142 -34 -124 -8 8 14 246 24 262 11 18
15 -27 10 -138z m-3324 16 c3 -42 6 -135 6 -207 0 -72 7 -217 16 -321 15 -194
15 -239 -11 -540 -8 -88 -17 -207 -20 -265 -12 -203 -59 -485 -80 -485 -29 0
-38 104 -45 550 -4 258 -12 469 -18 495 -15 63 -14 130 3 246 9 61 15 172 15
288 0 104 5 218 11 253 l11 63 53 0 52 0 7 -77z m2908 -575 c4 -105 10 -155
23 -188 15 -39 17 -74 16 -276 -2 -167 2 -266 14 -360 9 -71 15 -151 12 -179
-7 -57 -30 -166 -45 -210 -6 -16 -19 -77 -28 -135 -9 -58 -20 -111 -24 -118
-3 -7 -16 36 -29 95 -22 108 -39 165 -82 278 -13 36 -22 82 -22 115 4 458 11
683 26 760 11 53 17 135 17 216 0 72 3 134 7 137 3 4 30 7 59 7 l52 0 4 -142z
m310 107 c11 -14 30 -25 43 -25 22 0 24 -5 31 -77 4 -43 7 -145 8 -228 0 -141
-2 -158 -36 -285 -20 -74 -55 -193 -77 -264 -29 -91 -43 -151 -45 -205 -2 -42
-9 -89 -16 -106 -6 -17 -11 -70 -10 -120 2 -109 0 -129 -10 -90 -13 51 -10
265 4 360 18 114 30 165 57 240 26 74 28 224 4 359 -14 78 -14 114 -4 278 7
103 17 188 22 188 5 0 18 -11 29 -25z m842 -1110 c9 -99 19 -207 22 -240 3
-33 12 -86 21 -118 9 -32 13 -60 9 -64 -8 -8 -51 31 -87 81 -29 38 -29 41 -29
175 0 99 6 165 21 244 12 59 23 106 24 105 2 -2 10 -84 19 -183z m-2015 -70
c1 -27 -4 -57 -9 -65 -8 -13 -11 -13 -26 2 -15 14 -15 24 -4 85 18 106 23 114
31 68 4 -22 8 -62 8 -90z"/>
</g>
</svg>
